# OBJ written from D:\projects\laytrace\kuview\Resources\box.obj
# Units	meters

o Mesh
v -0.6 -0.552539 -0.552539
v -0.552539 -0.552539 -0.6
v -0.552539 -0.6 -0.552539
v 0.552539 -0.552539 -0.6
v 0.6 -0.552539 -0.552539
v 0.552539 -0.6 -0.552539
v 0.6 -0.552539 0.552539
v 0.552539 -0.552539 0.6
v 0.552539 -0.6 0.552539
v -0.552539 -0.6 0.552539
v -0.552539 -0.552539 0.6
v -0.6 -0.552539 0.552539
v -0.6 0.552539 -0.552539
v -0.552539 0.6 -0.552539
v -0.552539 0.552539 -0.6
v 0.552539 0.6 -0.552539
v 0.6 0.552539 -0.552539
v 0.552539 0.552539 -0.6
v 0.552539 0.6 0.552539
v 0.552539 0.552539 0.6
v 0.6 0.552539 0.552539
v -0.552539 0.6 0.552539
v -0.6 0.552539 0.552539
v -0.552539 0.552539 0.6
v 0.552539 0.586099 -0.586099
v -0.552539 0.586099 -0.586099
v -0.586099 0.586099 -0.552539
v -0.586099 0.586099 0.552539
v 0.586099 0.586099 0.552539
v 0.586099 0.586099 -0.552539
v -0.552539 0.586099 0.586099
v 0.552539 0.586099 0.586099
v -0.552539 -0.586099 0.586099
v 0.552539 -0.586099 0.586099
v -0.586099 -0.586099 -0.552539
v -0.586099 -0.586099 0.552539
v 0.586099 -0.586099 -0.552539
v 0.586099 -0.586099 0.552539
v 0.552539 -0.586099 -0.586099
v -0.552539 -0.586099 -0.586099
v -0.586099 0.552539 -0.586099
v -0.586099 -0.552539 -0.586099
v -0.586099 -0.552539 0.586099
v -0.586099 0.552539 0.586099
v 0.586099 -0.552539 0.586099
v 0.586099 0.552539 0.586099
v 0.586099 0.552539 -0.586099
v 0.586099 -0.552539 -0.586099
v -0.581465 -0.581465 -0.581465
v 0.581465 -0.581465 -0.581465
v 0.581465 -0.581465 0.581465
v -0.581465 -0.581465 0.581465
v -0.581465 0.581465 -0.581465
v 0.581465 0.581465 -0.581465
v 0.581465 0.581465 0.581465
v -0.581465 0.581465 0.581465
vn -0.191962 0.962445 -0.191962
vn 0.191962 0.962445 -0.191962
vn 0.18173 0.908495 -0.376312
vn -0.18173 0.908495 -0.376312
vn -0.18173 0.376312 -0.908495
vn 0.18173 0.376312 -0.908495
vn 0.191962 0.191962 -0.962445
vn -0.191962 0.191962 -0.962445
vn -0.191962 0.962445 0.191962
vn -0.376312 0.908495 -0.18173
vn -0.376312 0.908495 0.18173
vn -0.908495 0.376312 0.18173
vn -0.908495 0.376312 -0.18173
vn -0.962445 0.191962 -0.191962
vn -0.962445 0.191962 0.191962
vn 0.191962 0.962445 0.191962
vn 0.376312 0.908495 0.18173
vn 0.376312 0.908495 -0.18173
vn 0.908495 0.376312 -0.18173
vn 0.908495 0.376312 0.18173
vn 0.962445 0.191962 0.191962
vn 0.962445 0.191962 -0.191962
vn -0.18173 0.908495 0.376312
vn 0.18173 0.908495 0.376312
vn 0.18173 0.376312 0.908495
vn -0.18173 0.376312 0.908495
vn -0.191962 0.191962 0.962445
vn 0.191962 0.191962 0.962445
vn 0.191962 -0.191962 0.962445
vn -0.191962 -0.191962 0.962445
vn -0.18173 -0.376312 0.908495
vn 0.18173 -0.376312 0.908495
vn 0.18173 -0.908495 0.376312
vn -0.18173 -0.908495 0.376312
vn -0.191962 -0.962445 0.191962
vn 0.191962 -0.962445 0.191962
vn -0.962445 -0.191962 0.191962
vn -0.962445 -0.191962 -0.191962
vn -0.908495 -0.376312 -0.18173
vn -0.908495 -0.376312 0.18173
vn -0.376312 -0.908495 0.18173
vn -0.376312 -0.908495 -0.18173
vn -0.191962 -0.962445 -0.191962
vn 0.191962 -0.962445 -0.191962
vn 0.376312 -0.908495 -0.18173
vn 0.376312 -0.908495 0.18173
vn 0.908495 -0.376312 0.18173
vn 0.908495 -0.376312 -0.18173
vn 0.962445 -0.191962 -0.191962
vn 0.962445 -0.191962 0.191962
vn -0.191962 -0.191962 -0.962445
vn 0.191962 -0.191962 -0.962445
vn 0.18173 -0.376312 -0.908495
vn -0.18173 -0.376312 -0.908495
vn -0.18173 -0.908495 -0.376312
vn 0.18173 -0.908495 -0.376312
vn -0.908495 0.18173 -0.376312
vn -0.908495 -0.18173 -0.376312
vn -0.376312 -0.18173 -0.908495
vn -0.376312 0.18173 -0.908495
vn -0.908495 -0.18173 0.376312
vn -0.908495 0.18173 0.376312
vn -0.376312 0.18173 0.908495
vn -0.376312 -0.18173 0.908495
vn 0.376312 -0.18173 0.908495
vn 0.376312 0.18173 0.908495
vn 0.908495 0.18173 0.376312
vn 0.908495 -0.18173 0.376312
vn 0.376312 0.18173 -0.908495
vn 0.376312 -0.18173 -0.908495
vn 0.908495 -0.18173 -0.376312
vn 0.908495 0.18173 -0.376312
vn -0.862856 -0.357407 -0.357407
vn -0.357407 -0.357407 -0.862856
vn -0.357407 -0.862856 -0.357407
vn 0.357407 -0.357407 -0.862856
vn 0.862856 -0.357407 -0.357407
vn 0.357407 -0.862856 -0.357407
vn 0.862856 -0.357407 0.357407
vn 0.357407 -0.357407 0.862856
vn 0.357407 -0.862856 0.357407
vn -0.357407 -0.862856 0.357407
vn -0.357407 -0.357407 0.862856
vn -0.862856 -0.357407 0.357407
vn -0.862856 0.357407 -0.357407
vn -0.357407 0.862856 -0.357407
vn -0.357407 0.357407 -0.862856
vn 0.357407 0.862856 -0.357407
vn 0.862856 0.357407 -0.357407
vn 0.357407 0.357407 -0.862856
vn 0.357407 0.862856 0.357407
vn 0.357407 0.357407 0.862856
vn 0.862856 0.357407 0.357407
vn -0.357407 0.862856 0.357407
vn -0.862856 0.357407 0.357407
vn -0.357407 0.357407 0.862856
vt 0.350707 0.325059
vt 0.649293 0.325059
vt 0.649293 0.337883
vt 0.350707 0.337883
vt 0.649293 0.350706
vt 0.350707 0.350706
vt 0.0264723 0.325059
vt 0.325059 0.325059
vt 0.325059 0.337883
vt 0.0264723 0.337883
vt 0.325059 0.350706
vt 0.0264723 0.350706
vt 0.674941 0.325059
vt 0.973528 0.325059
vt 0.973528 0.337883
vt 0.674941 0.337883
vt 0.973528 0.350707
vt 0.674941 0.350707
vt 0.324536 0.311859
vt 0.324536 0.0240784
vt 0.337398 0.0240784
vt 0.337398 0.311859
vt 0.35026 0.0240784
vt 0.35026 0.311859
vt 0.64974 0.311859
vt 0.649739 0.0240784
vt 0.662601 0.0240784
vt 0.662602 0.311859
vt 0.675463 0.0240784
vt 0.675464 0.311859
vt 0.675463 -0.000640869
vt 0.974943 -0.000640836
vt 0.974943 0.0117188
vt 0.675463 0.0117188
vt 0.974943 0.0240784
vt 0.973528 0.674941
vt 0.674941 0.674941
vt 0.674941 0.662117
vt 0.973528 0.662117
vt 0.674941 0.649293
vt 0.973528 0.649293
vt 1.00067 0.0240784
vt 1.00067 0.311859
vt 0.987805 0.311859
vt 0.987805 0.0240784
vt 0.974943 0.311859
vt 0.325059 0.649293
vt 0.337883 0.350706
vt 0.337883 0.649293
vt 0.350707 0.649293
vt 0.35026 -0.000640785
vt 0.649739 -0.000640865
vt 0.649739 0.0117188
vt 0.35026 0.0117188
vt 0.999175 0.350707
vt 0.999175 0.649293
vt 0.986351 0.649293
vt 0.986352 0.350707
vt 0.649293 0.649293
vt 0.662117 0.350707
vt 0.662117 0.649293
vt 0.981429 0.0180949
vt 0.985164 0.0180949
vt 0.986409 0.0103227
vt 0.985164 0.00907769
vt 0.994181 0.0180949
vt 0.994181 0.00907769
vt 0.994181 0.00534262
vt 0.981429 0.330595
vt 0.990446 0.330595
vt 0.989201 0.322823
vt 0.981429 0.321578
vt 0.994181 0.330595
vt 0.990446 0.321578
vt 0.981429 0.317843
vt 0.668942 0.330559
vt 0.665228 0.330559
vt 0.66399 0.322831
vt 0.665228 0.321593
vt 0.656261 0.330559
vt 0.656261 0.321593
vt 0.656261 0.317878
vt 0.668942 0.00537849
vt 0.668942 0.00909253
vt 0.661213 0.0103305
vt 0.659975 0.00909253
vt 0.668942 0.018059
vt 0.659975 0.018059
vt 0.656261 0.018059
vt 0.331507 0.331507
vt 0.335242 0.340524
vt 0.336487 0.339279
vt 0.335242 0.331507
vt 0.344259 0.344259
vt 0.344259 0.340524
vt 0.344259 0.331507
vt 0.655741 0.344259
vt 0.664758 0.340524
vt 0.663513 0.339279
vt 0.655741 0.340524
vt 0.668493 0.331507
vt 0.664758 0.331507
vt 0.655741 0.331507
vt 0.980011 0.344223
vt 0.980011 0.340509
vt 0.98774 0.339271
vt 0.988978 0.340509
vt 0.980011 0.331543
vt 0.988978 0.331543
vt 0.992692 0.331543
vt 0.343738 0.0180591
vt 0.334772 0.0143451
vt 0.33601 0.013107
vt 0.343738 0.0143451
vt 0.331058 0.00537857
vt 0.334772 0.00537857
vt 0.343738 0.00537857
vt 0.0264723 0.649293
vt 0.0250575 0.311859
vt 0.0250572 0.0240784
mtllib box.mtl
usemtl Default
g Default
f 14/1/1 16/2/2 25/3/3 26/4/4
f 26/4/5 25/3/6 18/5/7 15/6/8
f 22/7/9 14/8/1 27/9/10 28/10/11
f 28/10/12 27/9/13 13/11/14 23/12/15
f 16/13/2 19/14/16 29/15/17 30/16/18
f 30/16/19 29/15/20 21/17/21 17/18/22
f 19/19/16 22/20/9 31/21/23 32/22/24
f 32/22/25 31/21/26 24/23/27 20/24/28
f 8/25/29 11/26/30 33/27/31 34/28/32
f 34/28/33 33/27/34 10/29/35 9/30/36
f 12/31/37 1/32/38 35/33/39 36/34/40
f 36/34/41 35/33/42 3/35/43 10/29/35
f 9/36/36 6/37/44 37/38/45 38/39/46
f 38/39/47 37/38/48 5/40/49 7/41/50
f 2/42/51 4/43/52 39/44/53 40/45/54
f 40/45/55 39/44/56 6/46/44 3/35/43
f 1/47/38 13/11/14 41/48/57 42/49/58
f 42/49/59 41/48/60 15/6/8 2/50/51
f 23/51/15 12/52/37 43/53/61 44/54/62
f 44/54/63 43/53/64 11/26/30 24/23/27
f 20/55/28 8/56/29 45/57/65 46/58/66
f 46/58/67 45/57/68 7/41/50 21/17/21
f 4/59/52 18/5/7 47/60/69 48/61/70
f 48/61/71 47/60/72 17/18/22 5/40/49
f 1/62/38 42/63/58 49/64/73 35/65/39
f 2/66/51 40/67/54 49/64/74 42/63/59
f 3/68/43 35/65/42 49/64/75 40/67/55
f 4/69/52 48/70/70 50/71/76 39/72/53
f 5/73/49 37/74/48 50/71/77 48/70/71
f 6/75/44 39/72/56 50/71/78 37/74/45
f 7/76/50 45/77/68 51/78/79 38/79/47
f 8/80/29 34/81/32 51/78/80 45/77/65
f 9/82/36 38/79/46 51/78/81 34/81/33
f 10/83/35 33/84/34 52/85/82 36/86/41
f 11/87/30 43/88/64 52/85/83 33/84/31
f 12/89/37 36/86/40 52/85/84 43/88/61
f 13/90/14 27/91/13 53/92/85 41/93/57
f 14/94/1 26/95/4 53/92/86 27/91/10
f 15/96/8 41/93/60 53/92/87 26/95/5
f 16/97/2 30/98/18 54/99/88 25/100/3
f 17/101/22 47/102/72 54/99/89 30/98/19
f 18/103/7 25/100/6 54/99/90 47/102/69
f 19/104/16 32/105/24 55/106/91 29/107/17
f 20/108/28 46/109/66 55/106/92 32/105/25
f 21/110/21 29/107/20 55/106/93 46/109/67
f 22/111/9 28/112/11 56/113/94 31/114/23
f 23/115/15 44/116/62 56/113/95 28/112/12
f 24/117/27 31/114/26 56/113/96 44/116/63
f 6/46/44 9/30/36 10/29/35 3/35/43
f 18/5/7 4/59/52 2/50/51 15/6/8
f 21/17/21 7/41/50 5/40/49 17/18/22
f 24/23/27 11/26/30 8/25/29 20/24/28
f 13/11/14 1/47/38 12/118/37 23/12/15
f 22/20/9 19/19/16 16/119/2 14/120/1
